<?xml version="1.0" encoding="UTF-8"?>
<svg width="85px" height="85px" viewBox="0 0 85 85" version="1.1" xmlns="http://www.w3.org/2000/svg" xmlns:xlink="http://www.w3.org/1999/xlink">
    <!-- Generator: Sketch 55.2 (78181) - https://sketchapp.com -->
    <title>noun_Machine Learning_2300229</title>
    <desc>Created with Sketch.</desc>
    <g id="Page-1" stroke="none" stroke-width="1" fill="none" fill-rule="evenodd">
        <g id="Landing4" transform="translate(-677.000000, -1026.000000)" fill="#000000" fill-rule="nonzero">
            <g id="noun_Machine-Learning_2300229" transform="translate(677.000000, 1026.000000)">
                <path d="M60.597428,18.72 C59.2612986,18.72 58.0064839,19.2395583 57.0615211,20.1845211 C56.1165583,21.1294839 55.597,22.3842986 55.597,23.719572 C55.597,25.0557014 56.1165583,26.3105161 57.0615211,27.2554789 C58.0064839,28.2004417 59.2612986,28.72 60.597428,28.72 C61.9335574,28.72 63.1883721,28.2004417 64.1324789,27.2554789 C65.0774417,26.3105161 65.597,25.0557014 65.597,23.720428 C65.597,22.3842986 65.0774417,21.1286279 64.1324789,20.1836652 C63.1883721,19.2395583 61.9335574,18.72 60.597428,18.72 Z" id="Path"></path>
                <path d="M60.597,55.597 C59.2609849,55.597 58.0062776,56.1165139 57.0613958,57.0613958 C56.1165139,58.0062776 55.597,59.2601291 55.597,60.5961441 C55.597,61.9321592 56.1173697,63.1868665 57.0622516,64.1317484 C58.0071335,65.0766303 59.2618408,65.597 60.5978559,65.597 C61.9338709,65.597 63.1885782,65.0774861 64.1326042,64.1326042 C65.0774861,63.1877224 65.597,61.9330151 65.597,60.597 C65.597,59.2609849 65.0774861,58.0062776 64.1326042,57.0613958 C63.1877224,56.1165139 61.9321592,55.597 60.597,55.597 Z" id="Path"></path>
                <path d="M5.28480264,37.157 C3.94834434,37.157 2.69236463,37.6766862 1.74802543,38.6218816 C0.803686218,39.5670769 0.284,40.8222005 0.284,42.1586588 C0.284,43.4959732 0.803686218,44.7510968 1.74802543,45.695436 C2.69322079,46.6406314 3.94920049,47.1611737 5.28565879,47.1611737 C6.62126093,47.1611737 7.87638449,46.6406314 8.82157985,45.6962922 C10.7710453,43.7468267 10.7719014,40.5730593 8.82157985,38.6210254 C7.87724064,37.6775424 6.62126093,37.157 5.28480264,37.157 Z" id="Path"></path>
                <path d="M48.546,11.668 C48.308,11.906 48.052,12.121 47.789,12.325 L55.237,19.773 C55.44,19.51 55.655,19.255 55.894,19.016 C56.133,18.778 56.388,18.563 56.651,18.359 L49.203,10.911 C49,11.174 48.785,11.429 48.546,11.668 Z" id="Path"></path>
                <path d="M42.1617144,74.035 C40.8250845,74.035 39.5697997,74.554753 38.624483,75.4992135 C36.6739109,77.4489293 36.6747671,80.6231043 38.624483,82.5745327 C39.5697997,83.5189932 40.8259408,84.0396024 42.1617144,84.0396024 C43.4974881,84.0396024 44.7536291,83.5189932 45.6989459,82.5745327 C47.649518,80.6239606 47.649518,77.4506418 45.6989459,75.4992135 C44.7544854,74.5556092 43.4983444,74.035 42.1617144,74.035 Z" id="Path"></path>
                <path d="M19.018,30.105 C18.779,29.866 18.564,29.611 18.361,29.348 L10.913,36.796 C11.176,36.999 11.431,37.214 11.67,37.452 C11.91,37.692 12.124,37.948 12.327,38.21 L19.775,30.762 C19.512,30.559 19.257,30.344 19.018,30.105 Z" id="Path"></path>
                <path d="M66.983,30.105 C66.745,30.344 66.489,30.559 66.226,30.762 L73.675,38.211 C73.877,37.949 74.091,37.693 74.331,37.453 C74.57,37.215 74.825,37 75.088,36.796 L67.64,29.348 C67.437,29.611 67.223,29.867 66.983,30.105 Z" id="Path"></path>
                <path d="M79.038964,47.1629941 C80.3756655,47.1629941 81.6310174,46.6432133 82.5763848,45.6987023 C84.526205,43.7480258 84.526205,40.5745372 82.5763848,38.6230044 C81.6310174,37.6776371 80.3748092,37.157 79.0381077,37.157 C77.7014062,37.157 76.4460543,37.6776371 75.500687,38.6221481 C73.5508668,40.5728246 73.5517231,43.7471695 75.5015433,45.697846 C76.4469106,46.642357 77.7022626,47.1629941 79.038964,47.1629941 Z" id="Path"></path>
                <path d="M42.159572,47.1578559 C43.4948455,47.1578559 44.7496602,46.6382976 45.694623,45.6941908 C46.6395857,44.749228 47.16,43.4944133 47.16,42.157428 C47.16,40.8212986 46.6395857,39.5664839 45.694623,38.6206652 C44.7496602,37.6765583 43.4957014,37.157 42.160428,37.157 C40.8251545,37.157 39.5694839,37.6774143 38.6245211,38.622377 C37.6804143,39.5673398 37.16,40.8221545 37.16,42.157428 C37.16,43.4935574 37.6795583,44.7483721 38.6245211,45.6933348 C39.5694839,46.6382976 40.8234426,47.1578559 42.159572,47.1578559 Z" id="Path"></path>
                <path d="M37.456,74.331 C37.695,74.093 37.95,73.878 38.213,73.674 L30.765,66.226 C30.561,66.489 30.347,66.744 30.108,66.983 C29.869,67.222 29.614,67.437 29.351,67.64 L36.8,75.088 C37.001,74.826 37.216,74.571 37.456,74.331 Z" id="Path"></path>
                <path d="M55.896,66.982 C55.657,66.744 55.442,66.488 55.239,66.225 L47.791,73.673 C48.054,73.877 48.309,74.092 48.548,74.33 C48.788,74.57 49.002,74.825 49.205,75.087 L56.653,67.639 C56.39,67.436 56.134,67.221 55.896,66.982 Z" id="Path"></path>
                <path d="M74.333,48.545 C74.093,48.305 73.879,48.05 73.676,47.788 L66.228,55.236 C66.491,55.439 66.746,55.654 66.985,55.893 C67.224,56.132 67.439,56.387 67.642,56.65 L75.09,49.202 C74.827,48.998 74.571,48.783 74.333,48.545 Z" id="Path"></path>
                <path d="M30.107,19.017 C30.346,19.255 30.561,19.511 30.764,19.774 L38.212,12.326 C37.949,12.122 37.694,11.907 37.455,11.669 C37.216,11.43 37.001,11.175 36.798,10.912 L29.35,18.36 C29.613,18.563 29.869,18.777 30.107,19.017 Z" id="Path"></path>
                <path d="M37.456,48.544 C37.217,48.306 37.002,48.05 36.799,47.787 L29.351,55.235 C29.614,55.439 29.869,55.654 30.108,55.892 C30.347,56.131 30.562,56.386 30.765,56.649 L38.213,49.201 C37.95,48.998 37.695,48.783 37.456,48.544 Z" id="Path"></path>
                <path d="M23.721428,65.5958559 C25.0567014,65.5958559 26.3123721,65.0762976 27.2564789,64.1313348 C28.2005857,63.1863721 28.721,61.9315574 28.721,60.595428 C28.721,59.2592986 28.2014417,58.0044839 27.2564789,57.0595211 C26.3123721,56.1154143 25.0567014,55.595 23.721428,55.595 C22.3852986,55.595 21.1304839,56.1154143 20.1855211,57.060377 C19.2405583,58.0053398 18.721,59.2601545 18.721,60.5962839 C18.721,61.9315574 19.2414143,63.1863721 20.1855211,64.1313348 C21.1296279,65.0762976 22.3852986,65.5958559 23.721428,65.5958559 Z" id="Path"></path>
                <path d="M23.721856,28.719856 C25.0572438,28.719856 26.3121659,28.2002532 27.2563535,27.2560656 C28.2013972,26.3110219 28.721,25.0552438 28.721,23.719856 C28.721,22.3836122 28.2013972,21.1286901 27.2563535,20.1836465 C26.3113099,19.2386028 25.0563878,18.719 23.721,18.719 C22.3847562,18.719 21.1289781,19.2386028 20.1847904,20.1836465 C19.2406028,21.1286901 18.721,22.3836122 18.721,23.719 C18.721,25.0552438 19.2414588,26.3101659 20.1856465,27.2552096 C21.1306901,28.2002532 22.3864682,28.719856 23.721856,28.719856 Z" id="Path"></path>
                <path d="M42.158572,10.2818559 C43.4938455,10.2818559 44.7503721,9.76144167 45.6944789,8.81733485 C46.6394417,7.87237208 47.159,6.61755739 47.159,5.28142797 C47.159,3.94529855 46.6394417,2.69048387 45.6944789,1.7455211 C44.7503721,0.802270222 43.4947014,0.281 42.158572,0.281 C40.8224426,0.281 39.5676279,0.800558333 38.6235211,1.7455211 C37.6794143,2.69048387 37.159,3.94529855 37.159,5.28142797 C37.159,6.61755739 37.6785583,7.87237208 38.6235211,8.81733485 C39.5684839,9.76229761 40.8232986,10.2818559 42.158572,10.2818559 Z" id="Path"></path>
            </g>
        </g>
    </g>
</svg>