<?xml version="1.0" encoding="UTF-8"?>
<svg width="85px" height="85px" viewBox="0 0 85 85" version="1.1" xmlns="http://www.w3.org/2000/svg" xmlns:xlink="http://www.w3.org/1999/xlink">
    <!-- Generator: Sketch 55.2 (78181) - https://sketchapp.com -->
    <title>noun_Big data_1711879</title>
    <desc>Created with Sketch.</desc>
    <g id="Page-1" stroke="none" stroke-width="1" fill="none" fill-rule="evenodd">
        <g id="Landing4" transform="translate(-1077.000000, -1031.000000)" fill="#000000" fill-rule="nonzero">
            <g id="noun_Big-data_1711879" transform="translate(1077.000000, 1031.000000)">
                <path d="M85,42.4991393 C85,37.3038054 81.5845063,32.5233408 75.8793924,28.7275452 C77.3030886,21.7711688 76.1668861,16.062843 72.5516962,12.4477996 C68.8693671,8.76561962 63.0471899,7.82054398 56.3126076,9.18393179 C52.5114937,3.44117707 47.7136203,0 42.4991392,0 C37.2949873,0 32.504,3.42912692 28.7063291,9.1529457 C23.5607089,8.09769731 18.9625316,8.43165846 15.4196456,10.3063167 C14.6036456,9.58330802 13.5449114,9.12884541 12.3708354,9.12884541 C9.82470886,9.12884541 7.75372152,11.1997489 7.75372152,13.7440509 C7.75372152,15.1883468 8.43544304,16.4639407 9.47524051,17.3108937 C8.32698734,20.5833688 8.23746835,24.4841728 9.09822785,28.7395954 C3.40860759,32.5319481 0,37.3089698 0,42.4991393 C0,47.6238937 3.23301266,52.4628876 9.17397468,56.3791846 C7.82946835,63.0859509 8.77974684,68.8820706 12.4483038,72.5522004 C15.0615696,75.1653604 18.7490633,76.4891549 23.2112405,76.4891549 C24.934481,76.4891549 26.7851139,76.2670879 28.7218228,75.8711546 C32.5177722,81.5794803 37.3001519,85 42.4991392,85 C47.7101772,85 52.5063291,81.5622658 56.3057215,75.8263969 C58.2338228,76.2188873 60.0913418,76.4306256 61.8404051,76.4306256 C66.2044557,76.4306256 69.9212152,75.1825749 72.5534177,72.5539219 C76.2357468,68.8717419 77.1808608,63.0498005 75.8174177,56.315491 C81.556962,52.5110882 85,47.7134091 85,42.4991393 Z M71.3345823,13.6648642 C74.4143797,16.7445369 75.4059747,21.6696033 74.299038,27.734269 C70.8938734,25.7201734 66.8087089,24.0314316 62.2294684,22.7678879 C60.9624304,18.1767827 59.2667342,14.0814549 57.2456709,10.6712639 C63.1212152,9.60224396 68.1428861,10.4732973 71.3345823,13.6648642 Z M72.8374684,30.6934403 C70.2913418,30.6934403 68.2220759,32.7643437 68.2220759,35.3086457 C68.2220759,36.9078721 69.0397975,38.317739 70.2775696,39.1457561 C69.9917975,39.70867 69.7094684,40.2715839 69.3995949,40.8327764 C67.907038,38.3762683 66.2061772,35.9180388 64.2746329,33.4907953 C63.9251646,30.4059582 63.3966582,27.446787 62.7166582,24.6494319 C67.004962,25.8905968 70.8146835,27.5087591 73.9444051,29.4195678 C73.8376709,29.8637017 73.7206076,30.313 73.5932152,30.7674626 C73.3487595,30.7278693 73.0956962,30.6934403 72.8374684,30.6934403 Z M16.1271899,54.5045264 C14.6311899,54.5045264 13.3125063,55.230978 12.468962,56.3361484 C11.9697215,56.0607165 11.4790886,55.7818417 11.012557,55.4943597 C11.8698734,51.9447314 13.4244051,48.1265569 15.5642532,44.2343601 C17.0619747,46.6719323 18.7989873,49.1095044 20.7219241,51.514369 C21.0731139,54.5905989 21.5981772,57.5428843 22.2764557,60.3333536 C21.7341772,60.1749803 21.2022278,60.0045568 20.672,59.8324119 C20.7081519,59.5982948 20.7443038,59.3641777 20.7443038,59.1197319 C20.7443038,56.5737084 18.6733165,54.5045264 16.1271899,54.5045264 Z M63.0644051,42.4991393 C63.0644051,45.3481378 62.9146329,48.1299998 62.6323038,50.8171821 C60.9073418,52.9517792 59.0429367,55.0381757 57.0408101,57.0402212 C55.033519,59.047431 52.9539241,60.9117605 50.8312911,62.6297669 C48.140557,62.913806 45.3534177,63.0635721 42.4991392,63.0635721 C39.668962,63.0635721 36.8766582,62.9069202 34.1480506,62.6177168 C32.0477975,60.9169249 29.9716456,59.0577597 27.9557468,57.0402212 C25.932962,55.0175183 24.0771646,52.9190716 22.3608101,50.7879175 C22.0802025,48.1093424 21.9321519,45.3378091 21.9321519,42.4991393 C21.9321519,39.643255 22.0819241,36.8562286 22.3659747,34.163882 C24.0702785,32.0585495 25.9346835,29.9773174 27.9574684,27.9563359 C29.9785316,25.9353545 32.0581266,24.071025 34.1635443,22.3667902 C36.856,22.0827511 39.6431392,21.932985 42.4991392,21.932985 C45.3448101,21.932985 48.1233418,22.0810296 50.8054684,22.3633473 C52.9246582,24.0761893 55.0163038,25.9336331 57.0408101,27.9580574 C59.0618734,29.9790388 60.9262785,32.0585495 62.6305823,34.163882 C62.9146329,36.8562286 63.0644051,39.643255 63.0644051,42.4991393 Z M58.2579241,26.7409928 C56.8531646,25.3362902 55.4070886,24.0245458 53.9472405,22.764445 C56.350481,23.1190635 58.6573165,23.5821334 60.8539747,24.1433258 C61.4151899,26.3398951 61.88,28.65008 62.2346329,31.0515017 C60.974481,29.5934342 59.6678481,28.1491383 58.2579241,26.7409928 Z M51.4837468,20.7176418 C49.0736203,18.8016688 46.6256203,17.0871053 44.1741772,15.5963303 C48.1061266,13.4290257 51.9640506,11.8625068 55.5465316,11.0035037 C57.4711899,14.1434271 59.0997468,17.9684874 60.3461266,22.2789963 C57.5434937,21.5955809 54.5773165,21.0688175 51.4837468,20.7176418 Z M48.3144304,20.4267169 C46.4121519,20.289001 44.4737215,20.2115357 42.4991392,20.2115357 C40.524557,20.2115357 38.5878481,20.2872795 36.6838481,20.4267169 C38.620557,18.9910282 40.5658734,17.7051056 42.5025823,16.556899 C44.4410127,17.7051056 46.3846076,18.9961926 48.3144304,20.4267169 Z M33.4904304,20.7210847 C30.4054684,21.0722604 27.4461772,21.5990238 24.6504304,22.2807177 C25.8950886,17.978816 27.5202025,14.1606416 29.4396962,11.024161 C33.0342278,11.8848857 36.8938734,13.4410758 40.8223797,15.606659 C38.3692152,17.0957126 35.9126076,18.7930615 33.4904304,20.7210847 Z M31.051038,22.764445 C29.5946329,24.0228244 28.148557,25.3294044 26.7403544,26.7392713 C25.3304304,28.1491383 24.0237975,29.5934342 22.7636456,31.0515017 C23.1182785,28.65008 23.5813671,26.3416165 24.1425823,24.1433258 C26.3392405,23.5821334 28.649519,23.1190635 31.051038,22.764445 Z M20.7202025,33.4907953 C18.7972658,35.9094315 17.0998481,38.3624967 15.6107342,40.8103976 C13.4536709,36.8854932 11.9180759,33.0242826 11.0555949,29.4178464 C14.1853165,27.5070377 17.9933165,25.8905968 22.2798987,24.6494319 C21.5964557,27.446787 21.0696709,30.4076797 20.7202025,33.4907953 Z M20.4258228,36.6858051 C20.2881013,38.5880066 20.2106329,40.5263584 20.2106329,42.4991393 C20.2106329,44.45987 20.2863797,46.3878931 20.4223797,48.2780444 C19.0021266,46.3517427 17.7178734,44.4116694 16.5730633,42.4715961 C17.7178734,40.5470158 18.996962,38.6121069 20.4258228,36.6858051 Z M22.7670886,53.9674342 C24.025519,55.418616 25.3373165,56.8560261 26.7403544,58.2572858 C28.1365063,59.6533811 29.5619241,60.9737327 31.004557,62.2217834 C28.6391899,61.8706078 26.3478481,61.3989307 24.1391392,60.8308524 C23.5796456,58.6480548 23.12,56.3533629 22.7670886,53.9674342 Z M33.4852658,64.2840796 C35.9022785,66.2069385 38.3571646,67.9094518 40.803443,69.4002268 C37.8906329,70.9977317 34.9778228,72.2991474 32.1287089,73.2115155 C31.2059747,73.5076048 30.3073418,73.7486077 29.4276456,73.9603459 C27.5167595,70.8341941 25.9002532,67.0332341 24.6573165,62.7502683 C27.4840506,63.4285194 30.4416203,63.9432327 33.4852658,64.2840796 Z M36.6890127,64.5750046 C38.6033418,64.710999 40.5434937,64.7850214 42.4991392,64.7850214 C44.4737215,64.7850214 46.4155949,64.7075561 48.3213165,64.5715617 C46.3983797,65.9952002 44.4513418,67.2794013 42.4956962,68.4344938 C40.5624304,67.2880086 38.6222785,66.0072503 36.6890127,64.5750046 Z M51.5164557,64.2754724 C54.5962532,63.9242967 57.5538228,63.3975333 60.3478481,62.7175608 C59.0997468,67.0297912 57.4711899,70.85313 55.5465316,73.9947749 C51.9709367,73.1357717 48.1216203,71.5744172 44.196557,69.4139984 C46.6669367,67.902566 49.1183797,66.1914454 51.5164557,64.2754724 Z M53.9558481,62.2321121 C55.4156962,60.9668469 56.8600506,59.656824 58.2579241,58.2572858 C59.6454684,56.8697977 60.9658734,55.4409948 62.2277468,53.9880916 C61.8748354,56.3757417 61.4117468,58.6704336 60.8539747,60.8532313 C58.6607595,61.4144237 56.3556456,61.8774936 53.9558481,62.2321121 Z M64.2746329,51.5315835 C66.1803544,49.142212 67.907038,46.6891468 69.4236962,44.2137027 C71.579038,48.1317212 73.1387342,51.9757174 73.9960506,55.5442818 C70.8542785,57.4705835 67.0290633,59.097353 62.7166582,60.3471252 C63.3983797,57.5583774 63.923443,54.6060919 64.2746329,51.5315835 Z M64.5724557,48.3159163 C64.7084557,46.4137149 64.7859241,44.4736416 64.7859241,42.4991393 C64.7859241,40.524637 64.7084557,38.5880066 64.5724557,36.6840837 C66.006481,38.6189926 67.2890127,40.5607874 68.4372658,42.4939749 C67.2804051,44.4547056 65.9909873,46.4016647 64.5724557,48.3159163 Z M42.4991392,1.72317071 C47.0267342,1.72317071 51.2151899,4.64619155 54.6169114,9.58158657 C50.7589873,10.5628126 46.6531646,12.2498329 42.4905316,14.6116613 C38.3468354,12.2584402 34.2478987,10.5542054 30.3934177,9.56609353 C33.7916962,4.63930575 37.9767089,1.72317071 42.4991392,1.72317071 Z M11.019443,18.1371894 C11.4498228,18.269741 11.8991392,18.3626992 12.372557,18.3626992 C14.9186835,18.3626992 16.9879494,16.2917958 16.9879494,13.7457723 C16.9879494,13.0072706 16.7968608,12.3169694 16.4869873,11.6989692 C19.5271899,10.1789295 23.4023291,9.88628309 27.7491646,10.6781497 C25.7281013,14.0866193 24.0341266,18.1802256 22.7670886,22.7696093 C18.180962,24.0348745 14.0906329,25.7270592 10.6837468,27.7445977 C10.0261266,24.1536545 10.1190886,20.8863438 11.019443,18.1371894 Z M1.72151899,42.4991393 C1.72151899,38.0027138 4.60678481,33.841971 9.48040506,30.4524374 C10.4668354,34.3084837 12.2055696,38.4072544 14.5778228,42.543897 C12.243443,46.6684894 10.5735696,50.7345525 9.59574684,54.5578913 C4.51037975,51.0512992 1.72151899,46.866456 1.72151899,42.4991393 Z M13.6636962,71.3334143 C10.4823291,68.1504547 9.60607595,63.1530875 10.6579241,57.3070458 C10.9953418,57.5050125 11.3448101,57.7012577 11.6977215,57.89406 C11.5892658,58.2882719 11.5117975,58.6928124 11.5117975,59.1197319 C11.5117975,61.6657553 13.5827848,63.7366588 16.1271899,63.7366588 C17.8177215,63.7366588 19.2827342,62.813962 20.0866835,61.4540171 C20.9663797,61.7397776 21.8615696,62.0048808 22.7739747,62.2562124 C24.0375696,66.8232173 25.7229367,70.8996091 27.7336709,74.29775 C21.670481,75.4046418 16.7521013,74.4216943 13.6636962,71.3334143 Z M42.4991392,83.2768293 C37.9922025,83.2768293 33.820962,80.3796302 30.4295696,75.4872714 C31.1612152,75.2996334 31.8997468,75.0930595 32.6554937,74.8520566 C35.900557,73.8123013 39.2213671,72.3146404 42.5301266,70.427932 C46.6738228,72.7742674 50.7658734,74.4544018 54.6083038,75.432185 C51.2083038,80.3572514 47.0232911,83.2768293 42.4991392,83.2768293 Z M71.3345823,71.3334143 C68.1411646,74.5249813 63.1194937,75.3943131 57.2456709,74.3235717 C59.2667342,70.9151022 60.9607089,66.8197744 62.2294684,62.2286692 C66.822481,60.9616826 70.9179747,59.266055 74.3265823,57.2433522 C75.3990886,63.1186585 74.5262785,68.140126 71.3345823,71.3334143 Z M75.4197468,54.6164206 C74.4419241,50.770703 72.7617215,46.6770966 70.4101266,42.524961 C70.9248608,41.6246431 71.4120506,40.7208822 71.8699747,39.8171213 C72.1832911,39.8842579 72.5052152,39.9238512 72.8391899,39.9238512 C75.3853165,39.9238512 77.4563038,37.8529477 77.4563038,35.3086457 C77.4563038,33.635397 76.5542278,32.1824939 75.2166076,31.3734127 C75.3095696,31.0497803 75.3853165,30.7330336 75.4662278,30.4145655 C80.376,33.8109849 83.2802025,37.9854993 83.2802025,42.5008607 C83.278481,47.0265508 80.3536203,51.2148369 75.4197468,54.6164206 Z" id="Shape"></path>
                <path d="M42.5,26.0204082 C36.8776714,26.0204082 32.9591837,28.3057661 32.9591837,30.3579937 C32.9591837,32.4085196 36.8776714,34.6938776 42.5,34.6938776 C48.1223286,34.6938776 52.0408163,32.4085196 52.0408163,30.3579937 C52.0408163,28.3040644 48.1223286,26.0204082 42.5,26.0204082 Z" id="Path"></path>
                <path d="M32.9591837,33.8265306 L32.9591837,38.2880218 C32.9591837,40.2791688 36.8776714,42.5 42.5,42.5 C48.1223286,42.5 52.0408163,40.2791688 52.0408163,38.2880218 L52.0408163,33.8265306 C50.0616597,35.4640631 46.5708637,36.534821 42.5,36.534821 C38.4308678,36.5331686 34.9383403,35.4640631 32.9591837,33.8265306 Z" id="Path"></path>
                <path d="M32.9591837,41.6326531 L32.9591837,45.213017 C32.9591837,47.2122471 36.8776714,49.4387755 42.5,49.4387755 C48.1223286,49.4387755 52.0408163,47.2122471 52.0408163,45.213017 L52.0408163,41.6326531 C50.0616597,43.2768332 46.5708637,44.3535969 42.5,44.3535969 C38.4308678,44.3535969 34.9383403,43.2768332 32.9591837,41.6326531 Z" id="Path"></path>
                <path d="M32.9591837,49.4387755 L32.9591837,53.8417135 C32.9591837,55.8613329 36.8776714,58.1122449 42.5,58.1122449 C48.1223286,58.1122449 52.0408163,55.8613329 52.0408163,53.8417135 L52.0408163,49.4387755 C50.0616597,51.0997239 46.5708637,52.1857932 42.5,52.1857932 C38.4308678,52.1857932 34.9383403,51.1014 32.9591837,49.4387755 Z" id="Path"></path>
            </g>
        </g>
    </g>
</svg>