<?xml version="1.0" encoding="UTF-8"?>
<svg width="87px" height="87px" viewBox="0 0 87 87" version="1.1" xmlns="http://www.w3.org/2000/svg" xmlns:xlink="http://www.w3.org/1999/xlink">
    <!-- Generator: Sketch 56.3 (81716) - https://sketch.com -->
    <title>noun_Satellite_2642645 (1) Copy</title>
    <desc>Created with Sketch.</desc>
    <g id="Page-1" stroke="none" stroke-width="1" fill="none" fill-rule="evenodd">
        <g id="noun_Satellite_2642645-(1)-Copy" transform="translate(1.000000, 1.000000)" fill="#000000" fill-rule="nonzero">
            <g id="Group">
                <path d="M59.772,84.626 C59.3235922,84.619613 58.8958718,84.4363042 58.582,84.116 L39.338,64.889 C38.6788699,64.2259363 38.6788699,63.1550637 39.338,62.492 L51.357,50.473 C51.6750214,50.1485454 52.109682,49.964886 52.564,49.963 L52.564,49.963 C53.018318,49.964886 53.4529786,50.1485454 53.771,50.473 L72.998,69.7 C73.3224546,70.0180214 73.506114,70.452682 73.508,70.907 C73.501613,71.3554078 73.3183042,71.7831282 72.998,72.097 L60.979,84.116 C60.6609786,84.4404546 60.226318,84.624114 59.772,84.626 Z M42.942,63.682 L59.772,80.512 L69.394,70.907 L52.564,54.077 L42.942,63.682 Z" id="Shape" stroke="#FFFFFF" stroke-width="0.8"></path>
                <path d="M21.318,46.1550285 C20.8661349,46.1576125 20.431822,45.9802171 20.111,45.662 L0.884,26.418 C0.224869889,25.7549363 0.224869889,24.6840637 0.884,24.021 L12.903,12.002 C13.5660637,11.3428699 14.6369363,11.3428699 15.3,12.002 L34.527,31.229 C34.8514546,31.5470214 35.035114,31.981682 35.037,32.436 C35.035114,32.890318 34.8514546,33.3249786 34.527,33.643 L22.508,45.662 C22.1913569,45.9760651 21.7639778,46.1531221 21.318,46.1550285 Z M4.488,25.228 L21.318,42.058 L30.923,32.436 L14.093,15.606 L4.488,25.228 Z" id="Shape" stroke="#FFFFFF" stroke-width="0.8"></path>
                <path d="M32.13,66.5890285 C31.6798961,66.5827381 31.2487774,66.4066473 30.923,66.096 L18.904,54.077 C18.5821685,53.7577968 18.4011428,53.3232838 18.4011428,52.87 C18.4011428,52.4167162 18.5821685,51.9822032 18.904,51.663 L36.941,33.643 C38.2164641,32.3661161 39.9472171,31.6486507 41.752,31.6486507 C43.5567829,31.6486507 45.2875359,32.3661161 46.563,33.643 L46.563,33.643 L51.357,38.437 C52.6338839,39.7124641 53.3513493,41.4432171 53.3513493,43.248 C53.3513493,45.0527829 52.6338839,46.7835359 51.357,48.059 L33.337,66.096 C33.016178,66.4142171 32.5818651,66.5916125 32.13,66.5890285 Z M22.508,52.87 L32.13,62.492 L48.96,45.662 C49.5984419,45.0242679 49.9571746,44.1588914 49.9571746,43.2565 C49.9571746,42.3541086 49.5984419,41.4887321 48.96,40.851 L44.2,36.04 C43.5622679,35.4015581 42.6968914,35.0428254 41.7945,35.0428254 C40.8921086,35.0428254 40.0267321,35.4015581 39.389,36.04 L22.508,52.87 Z" id="Shape" stroke="#FFFFFF" stroke-width="0.8"></path>
                <path d="M18.570272,67.796 C18.0182556,67.7931172 17.5219843,67.3763597 17.3128546,66.740049 C17.1037249,66.1037383 17.2229182,65.3731755 17.6148581,64.889 L23.4019365,57.681 C23.9434655,57.1033794 24.7507,57.1422151 25.2548433,57.7701425 C25.7589866,58.3980699 25.7901666,59.4035075 25.3264131,60.078 L19.5393347,67.286 C19.2840052,67.6104546 18.9350298,67.794114 18.570272,67.796 L18.570272,67.796 Z" id="Path" transform="translate(21.432844, 62.534109) rotate(9.000000) translate(-21.432844, -62.534109) "></path>
                <path d="M56.1,42.5000938 C52.4920326,42.5108247 49.0310633,41.0713065 46.495,38.505 L46.495,38.505 C41.1880712,33.1945916 41.1880712,24.5884084 46.495,19.278 C47.1580637,18.6188699 48.2289363,18.6188699 48.892,19.278 L65.722,36.108 C66.3811301,36.7710637 66.3811301,37.8419363 65.722,38.505 C63.1807105,41.0739008 59.7134778,42.5134763 56.1,42.5000938 Z M48.96,36.04 C52.4787942,39.5617648 58.0258762,40.0288118 62.084,37.145 L47.855,22.916 C44.9711882,26.9741238 45.4382352,32.5212058 48.96,36.04 L48.96,36.04 Z" id="Shape" stroke="#FFFFFF" stroke-width="0.8"></path>
                <path d="M56.1,30.6 C55.6515922,30.593613 55.2238718,30.4103042 54.91,30.09 C54.2508699,29.4269363 54.2508699,28.3560637 54.91,27.693 L58.514,24.089 C59.1884925,23.5113794 60.1939301,23.5502151 60.8218575,24.1781425 C61.4497849,24.8060699 61.4886206,25.8115075 60.911,26.486 L57.307,30.09 C56.9889786,30.4144546 56.554318,30.598114 56.1,30.6 Z" id="Path" stroke="#FFFFFF" stroke-width="0.8"></path>
                <path d="M60.979,27.421 C59.2901813,27.412627 57.8634925,26.1659132 57.6288365,24.4934553 C57.3941804,22.8209975 58.4226933,21.2298039 60.044,20.757 C60.4790977,20.6371779 60.943984,20.6952777 61.3362098,20.9184956 C61.7284356,21.1417136 62.0158089,21.5117291 62.135,21.947 C62.2160369,22.2418669 62.2160369,22.5531331 62.135,22.848 C62.4465958,22.7626605 62.7754042,22.7626605 63.087,22.848 C63.5268479,22.9703806 63.8989842,23.264538 64.1196205,23.6642415 C64.3402568,24.0639449 64.3908468,24.5355959 64.26,24.973 C63.8368889,26.4236667 62.5071111,27.421 60.996,27.421 L60.979,27.421 Z" id="Path" stroke="#FFFFFF" stroke-width="0.8"></path>
                <path d="M69.139,28.152 C68.9699672,28.1776451 68.7980328,28.1776451 68.629,28.152 C67.7326737,27.8746579 67.2305095,26.9235894 67.507,26.027 C67.698107,25.4045513 67.7955074,24.7571252 67.796,24.106 C67.796,20.3504637 64.7515363,17.306 60.996,17.306 C60.3447793,17.3052134 59.6971636,17.4026423 59.075,17.595 C58.1894934,17.838904 57.270373,17.335342 56.9992917,16.4577738 C56.7282104,15.5802055 57.203204,14.646001 58.072,14.348 C59.0184923,14.0527162 60.0045189,13.9036656 60.996,13.905973 C66.6293044,13.905973 71.1960068,18.4726956 71.1960068,24.106 C71.1971694,25.1029653 71.0481647,26.0944202 70.754,27.047 C70.5028773,27.719303 69.8566099,28.161486 69.139,28.152 Z" id="Path" stroke="#FFFFFF" stroke-width="0.8"></path>
                <path d="M75.956,30.175 C75.7883741,30.1711339 75.6222424,30.1424905 75.463,30.09 C74.5685223,29.8197705 74.0598144,28.8782814 74.324,27.982 C74.7109855,26.6974036 74.9057615,25.3626153 74.902,24.021 C74.902,16.3315394 68.6684606,10.098 60.979,10.098 C59.6373847,10.0942385 58.3025964,10.2890145 57.018,10.676 C56.1457555,10.8527558 55.2848164,10.3268671 55.04386,9.47013313 C54.8029035,8.61339913 55.2634951,7.71582999 56.1,7.412 C62.1748871,5.63596906 68.7348087,7.3143769 73.2102159,11.7897841 C77.6856231,16.2651913 79.3640309,22.8251129 77.588,28.9 C77.3955267,29.6455543 76.725972,30.1686439 75.956,30.175 Z" id="Path" stroke="#FFFFFF" stroke-width="0.8"></path>
                <path d="M60.979,27.421 C59.2901813,27.412627 57.8634925,26.1659132 57.6288365,24.4934553 C57.3941804,22.8209975 58.4226933,21.2298039 60.044,20.757 C60.4790977,20.6371779 60.943984,20.6952777 61.3362098,20.9184956 C61.7284356,21.1417136 62.0158089,21.5117291 62.135,21.947 C62.2160369,22.2418669 62.2160369,22.5531331 62.135,22.848 C62.4465958,22.7626605 62.7754042,22.7626605 63.087,22.848 C63.5268479,22.9703806 63.8989842,23.264538 64.1196205,23.6642415 C64.3402568,24.0639449 64.3908468,24.5355959 64.26,24.973 C63.8368889,26.4236667 62.5071111,27.421 60.996,27.421 L60.979,27.421 Z" id="Path" stroke="#FFFFFF" stroke-width="0.8"></path>
                <path d="M60.979,27.421 C59.2901813,27.412627 57.8634925,26.1659132 57.6288365,24.4934553 C57.3941804,22.8209975 58.4226933,21.2298039 60.044,20.757 C60.4790977,20.6371779 60.943984,20.6952777 61.3362098,20.9184956 C61.7284356,21.1417136 62.0158089,21.5117291 62.135,21.947 C62.2160369,22.2418669 62.2160369,22.5531331 62.135,22.848 C62.4465958,22.7626605 62.7754042,22.7626605 63.087,22.848 C63.5268479,22.9703806 63.8989842,23.264538 64.1196205,23.6642415 C64.3402568,24.0639449 64.3908468,24.5355959 64.26,24.973 C63.8368889,26.4236667 62.5071111,27.421 60.996,27.421 L60.979,27.421 Z" id="Path" stroke="#FFFFFF" stroke-width="0.8"></path>
                <path d="M82.161,32.011 C81.9975396,32.0349549 81.8314604,32.0349549 81.668,32.011 C80.7735223,31.7407705 80.2648144,30.7992814 80.529,29.903 C82.6927111,22.7188461 80.7382199,14.9267949 75.4399657,9.61433631 C70.1417116,4.3018777 62.3549212,2.32653126 55.165,4.471 C54.2636713,4.73858192 53.316082,4.22482867 53.0485001,3.32349998 C52.7809181,2.42217129 53.2946713,1.47458199 54.196,1.207 C62.5688082,-1.28309011 71.6328794,1.01362179 77.8096288,7.1903712 C83.9863782,13.3671206 86.2830901,22.4311918 83.793,30.804 C83.5752528,31.5225978 82.9118606,32.0132316 82.161,32.011 Z" id="Path" stroke="#FFFFFF" stroke-width="0.8"></path>
                <path d="M46.0377786,59.381 C45.7173367,59.379114 45.4107598,59.1954546 45.1864513,58.871 L42.6444601,55.267 C42.3424521,54.8297069 42.2279326,54.1971986 42.34404,53.6077349 C42.4601475,53.0182712 42.7892423,52.5614056 43.2073578,52.4092349 C43.6254733,52.2570643 44.0690876,52.4327069 44.3710956,52.87 L46.9130868,56.474 C47.3779878,57.1370637 47.3779878,58.2079363 46.9130868,58.871 C46.6829758,59.2039553 46.3665261,59.3883353 46.0377786,59.381 Z" id="Path"></path>
                <path d="M30.3910409,43.758 C30.0756326,43.751613 29.7747757,43.5683042 29.5539995,43.248 L27.0189599,39.644 C26.5553304,38.9809363 26.5553304,37.9100637 27.0189599,37.247 C27.4853564,36.5878699 28.238604,36.5878699 28.7050004,37.247 L31.24004,40.8 C31.7036696,41.4630637 31.7036696,42.5339363 31.24004,43.197 C31.0224352,43.540276 30.7159106,43.7428208 30.3910409,43.758 Z" id="Path"></path>
            </g>
        </g>
    </g>
</svg>